<?xml version="1.0" encoding="UTF-8" standalone="no"?>
<!-- Created with Inkscape (http://www.inkscape.org/) -->

<svg
   width="159.76854mm"
   height="148.7946mm"
   viewBox="0 0 159.76854 148.7946"
   version="1.1"
   id="svg1"
   xml:space="preserve"
   xmlns="http://www.w3.org/2000/svg"
   xmlns:svg="http://www.w3.org/2000/svg"><defs
     id="defs1" /><g
     id="layer1"
     transform="translate(-13.591706,-6.8414679)"><path
       fill="currentColor"
       d="m 36.200442,155.27621 c -2.737206,-0.45556 -7.696832,-2.41754 -10.124996,-4.00536 -2.766013,-1.80874 -7.099051,-6.21999 -8.591765,-8.74685 -0.650888,-1.10182 -1.574552,-2.97162 -2.052586,-4.15511 -1.949967,-4.82763 -1.903608,-3.32333 -1.79919,-58.381723 l 0.09632,-50.788175 0.828966,-2.469444 C 17.136513,19.045886 22.142478,13.13102 28.897669,9.785359 35.07965,6.723592 29.264168,6.99063 92.221275,6.877639 142.05866,6.788199 148.4379,6.837919 150.90882,7.335097 c 10.7635,2.165739 19.6805,11.029643 21.89118,21.760828 0.49614,2.408339 0.56017,8.382918 0.56017,52.268272 0,53.587313 0.0444,52.242083 -1.8837,57.015683 -1.40961,3.48983 -3.0705,5.98429 -5.87741,8.82714 -3.14189,3.18211 -5.88451,5.04555 -9.48216,6.44252 -5.42896,2.10807 -2.35091,2.01116 -62.660895,1.97292 -30.46236,-0.0193 -56.227366,-0.17513 -57.255563,-0.34625 z m 114.549118,-8.26347 c 6.59381,-1.55428 12.22911,-7.12689 13.9714,-13.81599 0.45321,-1.73999 0.52532,-8.83956 0.52532,-51.721653 0,-54.86451 0.12697,-51.658079 -2.22384,-56.15666 -1.42909,-2.734733 -5.44837,-6.754022 -8.18311,-8.183106 -4.55553,-2.380577 -0.59023,-2.244388 -62.336775,-2.140976 l -55.843776,0.09353 -2.217065,0.830258 c -5.098012,1.90913 -9.860213,6.671331 -11.769343,11.769343 l -0.830258,2.217066 -0.09449,50.447225 c -0.06475,34.571223 0.02338,51.015613 0.280053,52.253333 1.374322,6.62724 7.357993,12.79005 13.972848,14.39116 3.209411,0.77683 111.457386,0.79236 114.749036,0.0165 z M 53.084699,135.97521 c -2.347427,-1.25894 -2.491198,-1.95468 -2.491198,-12.05538 0,-10.10071 0.143771,-10.79645 2.491198,-12.05538 1.143413,-0.61322 3.109924,-0.64462 40.371306,-0.64462 37.261375,0 39.227885,0.0314 40.371295,0.64462 2.34743,1.25893 2.4912,1.95467 2.4912,12.05538 0,10.1007 -0.14377,10.79644 -2.4912,12.05538 -1.14341,0.61322 -3.10992,0.64462 -40.371295,0.64462 -37.261382,0 -39.227893,-0.0314 -40.371306,-0.64462 z m 75.119911,-12.05538 v -4.58611 H 93.456005 58.707395 v 4.58611 4.58611 h 34.74861 34.748605 z M 53.084699,109.86965 c -2.347427,-1.25894 -2.491198,-1.95467 -2.491198,-12.055383 0,-10.10071 0.143771,-10.79644 2.491198,-12.05538 1.143413,-0.61322 3.109924,-0.64462 40.371306,-0.64462 37.261375,0 39.227885,0.0314 40.371295,0.64462 2.34743,1.25894 2.4912,1.95467 2.4912,12.05538 0,10.100713 -0.14377,10.796443 -2.4912,12.055383 -1.14341,0.61322 -3.10992,0.64462 -40.371295,0.64462 -37.261382,0 -39.227893,-0.0314 -40.371306,-0.64462 z M 128.20461,97.814267 v -4.58611 H 93.456005 58.707395 v 4.58611 4.586113 h 34.74861 34.748605 z M 90.726695,70.659087 c -11.31707,-2.04299 -19.5234,-11.71998 -19.45306,-22.93926 0.0768,-12.243532 10.4203,-22.990926 22.18237,-23.048445 8.569225,-0.04191 16.368975,5.190718 20.255385,13.588736 1.79742,3.884011 2.29622,6.132299 2.25521,10.165259 -0.1185,11.65307 -9.43906,21.59155 -20.971525,22.36187 -1.42858,0.0954 -3.34935,0.0378 -4.26838,-0.12816 z m 9.320565,-9.0997 c 2.88028,-1.41796 5.26493,-3.91573 6.73252,-7.0519 1.42776,-3.05106 1.74119,-7.36948 0.78994,-10.8837 -1.15175,-4.254901 -4.37678,-8.151019 -8.250545,-9.96739 -1.74757,-0.819414 -2.42177,-0.929627 -5.68679,-0.929627 -3.45547,0 -3.85986,0.07619 -6.0232,1.134858 -2.92824,1.43298 -5.63627,4.243716 -7.09786,7.367069 -1.50626,3.218799 -1.78398,7.73442 -0.69598,11.31641 1.17015,3.85247 3.7323,7.00863 7.11427,8.76367 2.43377,1.26298 3.99804,1.57392 7.43615,1.47815 2.98598,-0.0832 3.64712,-0.22603 5.681495,-1.22754 z"
       id="path1" /></g></svg>
